<!DOCTYPE svg PUBLIC "-//W3C//DTD SVG 1.1//EN" "http://www.w3.org/Graphics/SVG/1.1/DTD/svg11.dtd">
<!-- Uploaded to: SVG Repo, www.svgrepo.com, Transformed by: SVG Repo Mixer Tools -->
<svg width="800px" height="800px" viewBox="0 0 24 24" id="_24x24_On_Light_About" data-name="24x24/On Light/About" xmlns="http://www.w3.org/2000/svg" fill="#000000">
<g id="SVGRepo_bgCarrier" stroke-width="0"/>
<g id="SVGRepo_tracerCarrier" stroke-linecap="round" stroke-linejoin="round"/>
<g id="SVGRepo_iconCarrier"> <rect id="view-box" width="24" height="24" fill="none"/> <path id="Shape" d="M.75,19.5A.751.751,0,0,1,0,18.75V.75A.751.751,0,0,1,.75,0h14a.751.751,0,0,1,.75.75v11a.755.755,0,0,1-.22.53l-7,7a.755.755,0,0,1-.53.22ZM1.5,18H7V11.75A.75.75,0,0,1,7.75,11H14V1.5H1.5Zm7-1.06,4.44-4.44H8.5Z" transform="translate(4.25 2.25)" fill="#000000"/> </g>
</svg>